<svg id="cashe" xmlns="http://www.w3.org/2000/svg" width="40" height="40" viewBox="0 0 40 40">
  <rect id="Rectangle-4" width="40" height="40" rx="8" fill="#f7f9fb"/>
  <g id="cashe-2" data-name="cashe" transform="translate(10 10)">
    <g id="Group_16800" data-name="Group 16800">
      <path id="Path_5267" data-name="Path 5267" d="M29.616,44.638v.672h.616v-.616h.616v-.924a.925.925,0,0,0-.924-.924.308.308,0,0,1-.308-.308v-.308h.308a.308.308,0,0,1,.308.308v.308h.616V42.54a.922.922,0,0,0-.616-.867V41h-.616v.616H29v.924a.925.925,0,0,0,.924.924.308.308,0,0,1,.308.308v.308h-.308a.308.308,0,0,1-.308-.308v-.308H29v.308A.922.922,0,0,0,29.616,44.638Z" transform="translate(-20.379 -28.479)"/>
      <path id="Path_5268" data-name="Path 5268" d="M19.474,10.853h-5.7l2.309-3.079H14.856V4.695H12.392V7.774H11.161l2.309,3.079H10.853V5.619c0-.879-2.308-.924-2.771-.924-.154,0-.514.006-.924.045V1.924C7.158,1.045,4.85,1,4.387,1s-2.771.045-2.771.924v8.929A.616.616,0,0,0,1,11.469v8.005a.616.616,0,0,0,.616.616H19.474a.616.616,0,0,0,.616-.616V11.469A.616.616,0,0,0,19.474,10.853ZM13.008,8.39V5.311H14.24V8.39h.616l-1.232,1.642L12.392,8.39ZM5.926,10.853V9.941a7.169,7.169,0,0,0,2.155.3,7.169,7.169,0,0,0,2.155-.3v.911ZM2.232,8.094a7.169,7.169,0,0,0,2.155.3c.317,0,.63-.015.924-.044V9.575a8.953,8.953,0,0,1-.924.046,4.445,4.445,0,0,1-2.155-.364Zm0-1.847a7.169,7.169,0,0,0,2.155.3c.317,0,.63-.015.924-.044V7.727a8.953,8.953,0,0,1-.924.046A4.445,4.445,0,0,1,2.232,7.41ZM10.237,7.41a4.445,4.445,0,0,1-2.155.364A4.445,4.445,0,0,1,5.926,7.41V6.247a7.169,7.169,0,0,0,2.155.3,7.169,7.169,0,0,0,2.155-.3Zm0,1.847a4.445,4.445,0,0,1-2.155.364,4.445,4.445,0,0,1-2.155-.364V8.094a7.169,7.169,0,0,0,2.155.3,7.169,7.169,0,0,0,2.155-.3Zm-.084-3.639a5.379,5.379,0,0,1-2.072.308A5.381,5.381,0,0,1,6.01,5.619a5.379,5.379,0,0,1,2.072-.308A5.381,5.381,0,0,1,10.153,5.619Zm-4.843,0V5.88a8.866,8.866,0,0,1-.924.047,4.445,4.445,0,0,1-2.155-.364V4.4a7.169,7.169,0,0,0,2.155.3,7.169,7.169,0,0,0,2.155-.3v.425c-.643.12-1.232.351-1.232.795ZM2.232,2.552a7.169,7.169,0,0,0,2.155.3,7.169,7.169,0,0,0,2.155-.3V3.715a4.445,4.445,0,0,1-2.155.364,4.445,4.445,0,0,1-2.155-.364Zm2.155-.936a5.381,5.381,0,0,1,2.072.308,5.381,5.381,0,0,1-2.072.308,5.381,5.381,0,0,1-2.072-.308,5.381,5.381,0,0,1,2.072-.308ZM2.232,9.941a7.169,7.169,0,0,0,2.155.3c.317,0,.63-.015.924-.044v.66H2.232Zm-.616,9.533V11.469H19.474v8.005Z" transform="translate(-1 -0.795)"/>
      <path id="Path_5269" data-name="Path 5269" d="M5,37v6.774H21.627V37Zm1.816.616a1.544,1.544,0,0,1-1.2,1.2v-1.2Zm-1.2,4.342a1.544,1.544,0,0,1,1.2,1.2h-1.2Zm1.823,1.2a2.157,2.157,0,0,0-1.823-1.823v-1.9a2.157,2.157,0,0,0,1.823-1.823h3.933a3.379,3.379,0,0,0,0,5.542Zm5.875-5.542a2.771,2.771,0,1,1-2.771,2.771A2.774,2.774,0,0,1,13.313,37.616Zm6.5,5.542a1.544,1.544,0,0,1,1.2-1.2v1.2Zm1.2-4.342a1.544,1.544,0,0,1-1.2-1.2h1.2Zm-1.823-1.2a2.157,2.157,0,0,0,1.823,1.823v1.9a2.157,2.157,0,0,0-1.823,1.823H15.255a3.379,3.379,0,0,0,0-5.542Z" transform="translate(-3.768 -25.71)"/>
      <path id="Path_5270" data-name="Path 5270" d="M48.232,6.7h2.463V3.617h1.232L49.463.333,47,3.617h1.232ZM49.463,1.36,50.695,3h-.616V6.081H48.847V3h-.616Z" transform="translate(-32.837 -0.333)"/>
    </g>
  </g>
</svg>
