<svg xmlns="http://www.w3.org/2000/svg" width="260.55" height="294.637" viewBox="0 0 260.55 294.637">
  <g id="Group_9" data-name="Group 9" transform="translate(-285.721 -260.668)">
    <g id="Group_6" data-name="Group 6">
      <g id="Group_2" data-name="Group 2">
        <path id="Path_1" data-name="Path 1" d="M289.971,453.088h-.23a4.02,4.02,0,0,0-4.02,4.02V483.1a4.012,4.012,0,0,0,4.014,4.01h.236a4.011,4.011,0,0,0,4.02-4v-26a4.02,4.02,0,0,0-4.02-4.02Z" fill="#103fd3"/>
        <path id="Path_2" data-name="Path 2" d="M325.6,457.748a18.092,18.092,0,0,0-24.24,0,14.706,14.706,0,0,0-5.01,11.17V483.1a4.012,4.012,0,0,0,4.014,4.01h.236a4.011,4.011,0,0,0,4.02-4V468.918a7.1,7.1,0,0,1,2.6-5.52,9.768,9.768,0,0,1,12.52,0,7.1,7.1,0,0,1,2.6,5.52V483.1a4.012,4.012,0,0,0,4.014,4.01h.236a4.011,4.011,0,0,0,4.02-4V468.918A14.7,14.7,0,0,0,325.6,457.748Z" fill="#103fd3"/>
        <path id="Path_3" data-name="Path 3" d="M364.871,463.608a10.08,10.08,0,0,0-3.1-7.42,10.221,10.221,0,0,0-7.53-3.1h-17.25a4.02,4.02,0,0,0,0,8.04h17.25a2.258,2.258,0,0,1,1.65.7,2.439,2.439,0,0,1,.71,1.78,2.4,2.4,0,0,1-.71,1.77,2.262,2.262,0,0,1-1.65.71h-17.25a4.015,4.015,0,1,0,0,8.03h17.254a2.262,2.262,0,0,1,1.65.71,2.561,2.561,0,0,1,0,3.54,2.262,2.262,0,0,1-1.65.71h-17.25a4.015,4.015,0,1,0,0,8.03h17.254a10.243,10.243,0,0,0,7.53-3.09,10.1,10.1,0,0,0,3.1-7.42,9.6,9.6,0,0,0-2.27-6.5A9.58,9.58,0,0,0,364.871,463.608Z" fill="#103fd3"/>
        <path id="Path_4" data-name="Path 4" d="M396.491,458.088a16.936,16.936,0,1,0,5,12.01A16.513,16.513,0,0,0,396.491,458.088Zm-5.88,18.38a8.788,8.788,0,0,1-12.428.072c-.024-.023-.048-.048-.072-.072a9.066,9.066,0,0,1,0-12.73,8.789,8.789,0,0,1,12.428-.072l.072.072A9.066,9.066,0,0,1,390.611,476.468Z" fill="#103fd3"/>
        <path id="Path_5" data-name="Path 5" d="M430.761,480.888l-7.34-10.81,7.32-10.8a3.971,3.971,0,0,0-3.3-6.2h-.01a3.958,3.958,0,0,0-3.25,1.73l-5.58,8.16-5.53-8.16a3.971,3.971,0,0,0-3.29-1.74h-.01a3.968,3.968,0,0,0-3.28,6.2l7.33,10.79-7.34,10.84a3.9,3.9,0,0,0-.69,2.22,3.982,3.982,0,0,0,7.28,2.24l5.55-8.19,5.54,8.19a3.986,3.986,0,0,0,6.6-4.47Z" fill="#103fd3"/>
        <path id="Path_6" data-name="Path 6" d="M484.771,456.708a11.972,11.972,0,0,0-8.79-3.62,11.262,11.262,0,0,0-8.27,3.1,11.242,11.242,0,0,0-8.27-3.1,11.973,11.973,0,0,0-8.79,3.62,11.825,11.825,0,0,0-3.61,8.67v17.6a4.135,4.135,0,0,0,8.27,0v-17.6a4.124,4.124,0,0,1,1.23-3.03,4.071,4.071,0,0,1,5.755-.056l.055.056a4.117,4.117,0,0,1,1.23,3.03v17.6a4.135,4.135,0,0,0,8.27,0v-17.6a4.152,4.152,0,0,1,1.22-3.03,4.081,4.081,0,0,1,5.772-.048l.048.048a4.117,4.117,0,0,1,1.23,3.03v17.6a4.13,4.13,0,0,0,8.26,0v-17.6A11.821,11.821,0,0,0,484.771,456.708Z" fill="#ee6f14"/>
        <path id="Path_7" data-name="Path 7" d="M494.881,453.088a4.134,4.134,0,0,0-4.13,4.136v25.754a4.135,4.135,0,0,0,8.27,0v-25.75A4.142,4.142,0,0,0,494.881,453.088Z" fill="#ee6f14"/>
        <path id="Path_8" data-name="Path 8" d="M530.631,457.748a18.092,18.092,0,0,0-24.24,0,14.706,14.706,0,0,0-5.01,11.17v14.06a4.135,4.135,0,1,0,8.27,0v-14.06a7.07,7.07,0,0,1,2.6-5.52,9.768,9.768,0,0,1,12.52,0,7.1,7.1,0,0,1,2.6,5.52v14.06a4.135,4.135,0,0,0,8.27,0v-14.06A14.7,14.7,0,0,0,530.631,457.748Z" fill="#ee6f14"/>
        <path id="Path_9" data-name="Path 9" d="M542.131,453.088a4.134,4.134,0,0,0-4.13,4.136v25.754a4.135,4.135,0,0,0,8.27,0v-25.75a4.135,4.135,0,0,0-4.13-4.14Z" fill="#ee6f14"/>
        <path id="Path_10" data-name="Path 10" d="M393.778,436.683a13.274,13.274,0,0,0-18.672-.147l-.161.147a13.263,13.263,0,0,0-3.912,9.413v8.682l.833-.741a18.979,18.979,0,0,1,4.864-3.148l.3-.132V446.1a7.288,7.288,0,0,1,2.161-5.179l.174-.18A7.34,7.34,0,0,1,391.7,446.1v4.617l.3.131a18.845,18.845,0,0,1,4.863,3.114l.831.733v-8.6A13.226,13.226,0,0,0,393.778,436.683Z" fill="#ee6f14"/>
        <path id="Path_11" data-name="Path 11" d="M384.362,465.668a3.328,3.328,0,0,1,1.673,6.206v3.219a1.676,1.676,0,0,1-1.673,1.674h-.011a1.679,1.679,0,0,1-1.674-1.674v-3.219a3.331,3.331,0,0,1,1.68-6.206Z" fill="#ee6f14" fill-rule="evenodd"/>
      </g>
      <g id="Group_4" data-name="Group 4">
        <path id="Path_12" data-name="Path 12" d="M433.851,369.525l-4.136,9.935v58.032h8.272V379.458l-4.136-9.934Z" fill="#103fd3"/>
        <path id="Path_13" data-name="Path 13" d="M515.983,333.7V406.82h8.268v-74.4l-4.136.64Z" fill="#103fd3"/>
        <path id="Path_14" data-name="Path 14" d="M308,373.914V406.82h8.272V374.842l-4.136-.464Z" fill="#103fd3"/>
        <g id="Group_3" data-name="Group 3">
          <path id="Path_15" data-name="Path 15" d="M513.423,327.336l-109.987-19.3v37.42l31.316,7.85Z" fill="#103fd3"/>
          <path id="Path_16" data-name="Path 16" d="M385.151,318.8c-.03.02-.05.03-.08.05a29.759,29.759,0,0,1-3.01,1.48c-.46.19-.93.36-1.4.53a135.206,135.206,0,0,1-9.26,12.2,133.829,133.829,0,0,1-9.27-12.21,26.334,26.334,0,0,1-3.4-1.49l-.18-.09c-.54-.24-1.07-.51-1.59-.79l-31.78,8.51,69.98,16.57v-32.8A30.67,30.67,0,0,1,385.151,318.8Z" fill="#4267fd"/>
        </g>
        <line id="Line_1" data-name="Line 1" x1="7.402" y1="1.413" transform="translate(304.688 368.546)" fill="none"/>
        <path id="Path_17" data-name="Path 17" d="M307.46,333.055l-12.465,29.993,9.178,2.285,4.6-10.357,5.723,1.391,2.477.607-4.539,10.415,13.674,3.4,4.792-10.421,8.161,2.033-4.722,10.447,14.181,3.531,4.687-10.444,7.952,1.981-4.718,10.432,13.848,3.448,4.435-10.5,8.235,2.051-4.369,10.52,13.914,3.464,4.3-10.536,8.456,2.106-4.3,10.534,13.886,3.457L427.4,362.735Z" fill="#4267fd"/>
        <path id="Path_18" data-name="Path 18" d="M526.284,321.837,537,291.173l-9.294-1.751-3.992,10.605-5.794-1.058-2.508-.463,3.93-10.66-13.847-2.609-4.182,10.68-8.264-1.558,4.107-10.693-14.361-2.706-4.076,10.7-8.053-1.518,4.108-10.691-14.02-2.646-3.826,10.743-8.34-1.572,3.754-10.755-14.088-2.655-3.686,10.766L426,281.718l3.688-10.765-14.062-2.65-10.793,30.832Z" fill="#4267fd"/>
      </g>
      <g id="Group_5" data-name="Group 5">
        <path id="Path_19" data-name="Path 19" d="M365.321,511.288a12.912,12.912,0,0,0-12.88,12.63,3.438,3.438,0,0,1-6.77-.79v-6.89a3.915,3.915,0,1,0-7.83-.014v6.9a3.405,3.405,0,0,1-6.81,0v-6.89a3.915,3.915,0,1,0-7.83-.014v6.9a3.346,3.346,0,0,1-3.3,3.4c-.074,0-.148,0-.223-.005h-4.09c-3.65,0-6.21-.22-7.73-1.37a3.87,3.87,0,0,0-3.94-.36,4.086,4.086,0,0,0-2.28,3.33,3.783,3.783,0,0,0,1.78,3.45,18.945,18.945,0,0,0,6.65,2.73c2.05.38,2.94,1.07,3.08,1.6a1.534,1.534,0,0,1-.54,1.37,11.55,11.55,0,0,1-7.73,2.68,10.3,10.3,0,0,1-8.24-3.63c-2.12-2.73-2.57-6.83-1.3-11.89a4.015,4.015,0,0,0-1.15-3.9,3.888,3.888,0,0,0-3.81-.92,3.838,3.838,0,0,0-2.6,2.94c-2.39,9.35.15,15.22,2.7,18.5a18.218,18.218,0,0,0,14.39,6.72,20.066,20.066,0,0,0,12.85-4.54,10.2,10.2,0,0,0,3.02-8.89h1.96v-.43a11.46,11.46,0,0,0,4.43-2.27,11.576,11.576,0,0,0,5.16,2.47l.01.23h4.45v-.27a11.47,11.47,0,0,0,5.02-2.43,11.566,11.566,0,0,0,5.16,2.47l.01.23h4.45v-.26a11.6,11.6,0,0,0,4.02-1.64,13.046,13.046,0,0,0,9.91,4.65,12.909,12.909,0,0,0,12.87-12.92A13.046,13.046,0,0,0,365.321,511.288Zm0,17.98a5.068,5.068,0,1,1,5.05-5.1A5.065,5.065,0,0,1,365.321,529.268Z" fill="#ee6f14"/>
        <path id="Path_20" data-name="Path 20" d="M466.559,509.255,474,502.524a3.924,3.924,0,0,0,.254-5.545l-.046-.049a3.865,3.865,0,0,0-5.456-.328l-.063.057-13.786,12.434a3.909,3.909,0,0,0-1,4.4,4.288,4.288,0,0,0,3.969,2.822h0c4.294-.194,9.812.5,12.406,2.989a5.081,5.081,0,0,1,1.569,3.871c0,3.1-3.8,3.344-4.966,3.344h-14.8A3.353,3.353,0,0,1,448.7,523.2v-9.4a3.911,3.911,0,0,0-7.821-.124v9.54a3.413,3.413,0,0,1-6.823,0V518.8a3.911,3.911,0,0,0-7.821-.124v4.541a3.412,3.412,0,0,1-6.821,0V518.8a3.911,3.911,0,0,0-7.821-.124v10.532a7.286,7.286,0,1,1-12.428-5.219,3.823,3.823,0,0,0,.362-5.395c-.023-.027-.047-.054-.071-.08a3.9,3.9,0,0,0-5.507-.3c-.042.038-.083.076-.123.115a15.121,15.121,0,0,0,10.5,26.006A14.9,14.9,0,0,0,418.7,533.577a12.325,12.325,0,0,0,11.425-1.787,12.092,12.092,0,0,0,7.378,2.459,11.78,11.78,0,0,0,7.349-2.532,11.553,11.553,0,0,0,4.924,2.354v.269h17.111c7.409,0,12.787-4.7,12.787-11.165C479.677,516,474.961,511.078,466.559,509.255Z" fill="#103fd3"/>
        <path id="Path_21" data-name="Path 21" d="M531.571,512.288a3.846,3.846,0,0,0-3.911,3.776c0,.058,0,.116,0,.174v6.89a3.41,3.41,0,1,1-6.82,0v-6.89a3.91,3.91,0,0,0-7.82,0v6.89a3.35,3.35,0,0,1-3.307,3.394c-.071,0-.142,0-.213,0h-1.13v-3.39c0-8.59-5.31-14.59-12.92-14.59a12.9,12.9,0,0,0,0,25.8h4.42a3.817,3.817,0,0,1-1.39,1.77,4.575,4.575,0,0,1-3.76.11,3.9,3.9,0,0,0-3.91.82,4.044,4.044,0,0,0-1.22,3.83,3.783,3.783,0,0,0,2.74,2.79,14.155,14.155,0,0,0,4.19.66,11.173,11.173,0,0,0,6.28-1.85,12.563,12.563,0,0,0,5.18-8.13h3.95v-.27a11.47,11.47,0,0,0,5.02-2.43,11.535,11.535,0,0,0,5.15,2.47l.02.23h4.44v-.24a11.224,11.224,0,0,0,8.92-10.97v-6.89a3.843,3.843,0,0,0-3.735-3.949C531.687,512.288,531.629,512.287,531.571,512.288Zm-31.02,14.23h-5.1a5.08,5.08,0,0,1,0-10.16h0c4.6,0,5.1,4.73,5.1,6.77Z" fill="#103fd3"/>
        <path id="Path_22" data-name="Path 22" d="M542.2,495.62a3.84,3.84,0,0,0-3.911,3.769q0,.087,0,.174v30.819a3.911,3.911,0,0,0,7.822,0V499.563a3.841,3.841,0,0,0-3.737-3.942C542.319,495.619,542.261,495.619,542.2,495.62Z" fill="#103fd3"/>
        <path id="Path_23" data-name="Path 23" d="M338.345,535.331a3.273,3.273,0,1,0,3.251,3.295v-.044A3.294,3.294,0,0,0,338.345,535.331Z" fill="#ee6f14"/>
        <path id="Path_24" data-name="Path 24" d="M345.716,535.331a3.273,3.273,0,1,0,3.268,3.268A3.273,3.273,0,0,0,345.716,535.331Z" fill="#ee6f14"/>
        <path id="Path_25" data-name="Path 25" d="M299.458,548.757a3.274,3.274,0,1,0,3.251,3.3v-.046A3.294,3.294,0,0,0,299.458,548.757Z" fill="#ee6f14"/>
        <path id="Path_26" data-name="Path 26" d="M306.829,548.757a3.274,3.274,0,1,0,3.217,3.217A3.275,3.275,0,0,0,306.829,548.757Z" fill="#ee6f14"/>
        <path id="Path_27" data-name="Path 27" d="M327.072,511.148a3.274,3.274,0,1,0-3.251-3.3A3.318,3.318,0,0,0,327.072,511.148Z" fill="#ee6f14"/>
        <path id="Path_28" data-name="Path 28" d="M516.933,535.377a3.273,3.273,0,1,0,3.251,3.295v-.045A3.293,3.293,0,0,0,516.933,535.377Z" fill="#103fd3"/>
        <path id="Path_29" data-name="Path 29" d="M531.528,509.156a3.273,3.273,0,1,0-3.251-3.3A3.317,3.317,0,0,0,531.528,509.156Z" fill="#103fd3"/>
      </g>
    </g>
    <g id="Group_8" data-name="Group 8">
      <path id="Path_30" data-name="Path 30" d="M371.371,260.668a30.7,30.7,0,0,0-14.41,57.81c.52.28,1.05.55,1.59.79a31.53,31.53,0,0,0,3.25,1.06.035.035,0,0,0,.02.01c.01.01.02.01.04.01a35.8,35.8,0,0,0,18.91-.04,34.168,34.168,0,0,0,4.38-1.51,30.7,30.7,0,0,0-13.78-58.13Zm-25.73,26.87a1.192,1.192,0,0,1,1.11-.69h1.84c.58,0,1.15.01,1.72,0a.763.763,0,0,1,.76.38.9.9,0,0,1-.1.94,1.221,1.221,0,0,1-1.05.56c-1.19,0-2.38,0-3.56-.01a.761.761,0,0,1-.72-1.18ZM360.981,303a2.343,2.343,0,0,1-2.06-3.22,3.754,3.754,0,0,1,3.12-2.67,2.293,2.293,0,0,1,2.721,1.764,2.242,2.242,0,0,1,.049.566,3.771,3.771,0,0,1-3.83,3.56Zm28.26-2.36a3.747,3.747,0,0,1-2.93,2.32,2.334,2.334,0,0,1-2.85-2.35,3.758,3.758,0,0,1,3.86-3.52,2.407,2.407,0,0,1,1.92,3.55Zm6.14-2.26a2.1,2.1,0,0,1-1.96,1.65c-.81.04-1.63.01-2.45.02-.19,0-.28-.04-.25-.27.41-2.65-1.84-4.6-4.64-3.77a5.329,5.329,0,0,0-3.72,3.68.437.437,0,0,1-.5.362l-.009,0q-7.7-.015-15.39,0c-.32,0-.44-.03-.39-.42a3.321,3.321,0,0,0-4.24-3.71,5.423,5.423,0,0,0-4.15,3.78c-.09.27-.18.36-.46.35-.66-.02-1.32,0-1.98-.01a1.343,1.343,0,0,1-1.42-1.76c.11-.56.23-1.12.37-1.68.09-.33.01-.43-.35-.43q-4.515.015-9.03.01c-.32,0-.64-.03-.81-.37a.9.9,0,0,1,.1-.97,1.138,1.138,0,0,1,.94-.53h.34q5.76,0,11.52.01a1.262,1.262,0,0,0,1.14-.57.852.852,0,0,0,.09-.93.8.8,0,0,0-.8-.38h-7.78c-.68,0-.95-.16-1.01-.61a1.145,1.145,0,0,1,.84-1.2,2.809,2.809,0,0,1,.64-.05h11.61a1.2,1.2,0,0,0,1.29-.9.717.717,0,0,0-.69-.95c-.21-.01-.43-.01-.64-.01h-7.7c-.77,0-1.08-.19-1.1-.71a1.184,1.184,0,0,1,1.11-1.15,5.518,5.518,0,0,1,.56-.01q5.76,0,11.52.01a1.3,1.3,0,0,0,1.13-.49.929.929,0,0,0,.16-.97.746.746,0,0,0-.79-.4h-6.83q-3.3-.015-6.58,0c-.74,0-1.05-.2-1.08-.7a1.155,1.155,0,0,1,1.09-1.16c.99-.02,1.98-.01,2.97-.01,1.03,0,1.03,0,1.26-1.01.09-.41.17-.84.27-1.25a2.193,2.193,0,0,1,2.15-1.76h27.86a3.073,3.073,0,0,1,3.14,2.37q.945,3,1.88,6.02a.736.736,0,0,0,.43.48c.69.32,1.37.66,2.05,1a2.714,2.714,0,0,1,1.57,3.04q-.6,3.18-1.28,6.36Z" fill="#ee6f14"/>
      <path id="Path_31" data-name="Path 31" d="M350.971,288.168a1.221,1.221,0,0,1-1.05.56c-1.19,0-2.38,0-3.56-.01a.761.761,0,0,1-.72-1.18,1.192,1.192,0,0,1,1.11-.69h1.84c.58,0,1.15.01,1.72,0a.763.763,0,0,1,.76.38A.9.9,0,0,1,350.971,288.168Z" fill="#ee6f14"/>
      <path id="Path_32" data-name="Path 32" d="M364.811,299.438a3.771,3.771,0,0,1-3.83,3.56,2.343,2.343,0,0,1-2.06-3.22,3.754,3.754,0,0,1,3.12-2.67,2.293,2.293,0,0,1,2.721,1.764A2.242,2.242,0,0,1,364.811,299.438Z" fill="#ee6f14"/>
      <path id="Path_33" data-name="Path 33" d="M389.241,300.638a3.747,3.747,0,0,1-2.93,2.32,2.334,2.334,0,0,1-2.85-2.35,3.758,3.758,0,0,1,3.86-3.52,2.407,2.407,0,0,1,1.92,3.55Z" fill="#ee6f14"/>
      <path id="Path_34" data-name="Path 34" d="M396.661,292.018q-.6,3.18-1.28,6.36a2.1,2.1,0,0,1-1.96,1.65c-.81.04-1.63.01-2.45.02-.19,0-.28-.04-.25-.27.41-2.65-1.84-4.6-4.64-3.77a5.329,5.329,0,0,0-3.72,3.68.437.437,0,0,1-.5.362l-.009,0q-7.7-.015-15.39,0c-.32,0-.44-.03-.39-.42a3.321,3.321,0,0,0-4.24-3.71,5.421,5.421,0,0,0-4.15,3.78c-.09.27-.18.36-.46.35-.66-.02-1.32,0-1.98-.01a1.343,1.343,0,0,1-1.42-1.76c.11-.56.23-1.12.37-1.68.09-.33.01-.43-.35-.43q-4.515.015-9.03.01c-.32,0-.64-.03-.81-.37a.9.9,0,0,1,.1-.97,1.138,1.138,0,0,1,.94-.53h.34q5.76,0,11.52.01a1.262,1.262,0,0,0,1.14-.57.852.852,0,0,0,.09-.93.8.8,0,0,0-.8-.38h-7.78c-.68,0-.95-.16-1.01-.61a1.145,1.145,0,0,1,.84-1.2,2.809,2.809,0,0,1,.64-.05h11.61a1.2,1.2,0,0,0,1.29-.9.717.717,0,0,0-.69-.95c-.21-.01-.43-.01-.64-.01h-7.7c-.77,0-1.08-.19-1.1-.71a1.184,1.184,0,0,1,1.11-1.15,5.518,5.518,0,0,1,.56-.01q5.76,0,11.52.01a1.3,1.3,0,0,0,1.13-.49.929.929,0,0,0,.16-.97.746.746,0,0,0-.79-.4h-6.83q-3.3-.015-6.58,0c-.74,0-1.05-.2-1.08-.7a1.155,1.155,0,0,1,1.09-1.16c.99-.02,1.98-.01,2.97-.01,1.03,0,1.03,0,1.26-1.01.09-.41.17-.84.27-1.25a2.193,2.193,0,0,1,2.15-1.76h27.86a3.073,3.073,0,0,1,3.14,2.37q.945,3,1.88,6.02a.736.736,0,0,0,.43.48c.69.32,1.37.66,2.05,1A2.714,2.714,0,0,1,396.661,292.018Z" fill="#ee6f14"/>
      <g id="Group_7" data-name="Group 7">
        <path id="Path_35" data-name="Path 35" d="M395.091,288.978c-.68-.34-1.36-.68-2.05-1a.736.736,0,0,1-.43-.48q-.93-3.015-1.88-6.02a3.073,3.073,0,0,0-3.14-2.37h-27.86a2.193,2.193,0,0,0-2.15,1.76c-.1.41-.18.84-.27,1.25-.23,1.01-.23,1.01-1.26,1.01-.99,0-1.98-.01-2.97.01a1.155,1.155,0,0,0-1.09,1.16c.03.5.34.7,1.08.7q3.285-.015,6.58,0h6.83a.746.746,0,0,1,.79.4.929.929,0,0,1-.16.97,1.3,1.3,0,0,1-1.13.49q-5.76-.015-11.52-.01a5.518,5.518,0,0,0-.56.01,1.183,1.183,0,0,0-1.11,1.15c.02.52.33.71,1.1.71h7.7c.21,0,.43,0,.64.01a.714.714,0,0,1,.69.95,1.2,1.2,0,0,1-1.29.9h-11.61a2.809,2.809,0,0,0-.64.05,1.145,1.145,0,0,0-.84,1.2c.06.45.33.61,1.01.61h7.78a.8.8,0,0,1,.8.38.852.852,0,0,1-.09.93,1.262,1.262,0,0,1-1.14.57q-5.76-.015-11.52-.01h-.34a1.138,1.138,0,0,0-.94.53.9.9,0,0,0-.1.97c.17.34.49.37.81.37q4.515,0,9.03-.01c.36,0,.44.1.35.43-.14.56-.26,1.12-.37,1.68a1.343,1.343,0,0,0,1.42,1.76c.66.01,1.32-.01,1.98.01.28.01.37-.08.46-.35a5.423,5.423,0,0,1,4.15-3.78,3.319,3.319,0,0,1,4.24,3.71c-.05.39.07.42.39.42q7.7-.015,15.39,0a.437.437,0,0,0,.509-.351v-.009a5.329,5.329,0,0,1,3.72-3.68c2.8-.83,5.05,1.12,4.64,3.77-.03.23.06.27.25.27.82-.01,1.64.02,2.45-.02a2.1,2.1,0,0,0,1.96-1.65q.675-3.18,1.28-6.36A2.714,2.714,0,0,0,395.091,288.978Zm-5.08-1.27c-1.28.01-2.57,0-3.86,0h-3.78c-.51,0-.62-.13-.52-.62.33-1.59.66-3.19,1-4.79.12-.55.33-.73.88-.73q2.235-.015,4.47,0c.6,0,.79.14.97.71q.72,2.31,1.44,4.63c.16.52-.05.8-.6.8Z" fill="#fff"/>
        <path id="Path_36" data-name="Path 36" d="M364.811,299.438a3.771,3.771,0,0,1-3.83,3.56,2.343,2.343,0,0,1-2.06-3.22,3.754,3.754,0,0,1,3.12-2.67,2.293,2.293,0,0,1,2.721,1.764A2.242,2.242,0,0,1,364.811,299.438Z" fill="#fff"/>
        <path id="Path_37" data-name="Path 37" d="M389.241,300.638a3.747,3.747,0,0,1-2.93,2.32,2.334,2.334,0,0,1-2.85-2.35,3.758,3.758,0,0,1,3.86-3.52,2.407,2.407,0,0,1,1.92,3.55Z" fill="#fff"/>
        <path id="Path_38" data-name="Path 38" d="M350.971,288.168a1.221,1.221,0,0,1-1.05.56c-1.19,0-2.38,0-3.56-.01a.761.761,0,0,1-.72-1.18,1.192,1.192,0,0,1,1.11-.69h1.84c.58,0,1.15.01,1.72,0a.763.763,0,0,1,.76.38A.9.9,0,0,1,350.971,288.168Z" fill="#fff"/>
      </g>
    </g>
    <path id="Path_39" data-name="Path 39" d="M380.321,320.968a125.061,125.061,0,0,0-8.93,9.6,120.108,120.108,0,0,0-8.86-9.59A28.255,28.255,0,0,0,380.321,320.968Z" fill="#ee6f14"/>
  </g>
</svg>
