<svg id="report" xmlns="http://www.w3.org/2000/svg" width="40" height="40" viewBox="0 0 40 40">
  <g id="cashe">
    <rect id="Rectangle-4" width="40" height="40" rx="8" fill="#f7f9fb"/>
  </g>
  <g id="svgexport-6" transform="translate(-142.67 65)">
    <g id="Group_16802" data-name="Group 16802" transform="translate(154.67 -56)">
      <g id="Group_16801" data-name="Group 16801">
        <path id="Path_5271" data-name="Path 5271" d="M83.316,0H67.006a.336.336,0,0,0-.336.336V16.314a.336.336,0,1,0,.673,0V.673H82.98V2.787a.336.336,0,1,0,.673,0V.336A.336.336,0,0,0,83.316,0Z" transform="translate(-66.67)"/>
        <path id="Path_5272" data-name="Path 5272" d="M83.316,89.65a.336.336,0,0,0-.336.336v17.933H67.343v-4.406a.336.336,0,1,0-.673,0v4.742a.336.336,0,0,0,.336.336h16.31a.336.336,0,0,0,.336-.336V89.986A.336.336,0,0,0,83.316,89.65Z" transform="translate(-66.67 -85.629)"/>
        <path id="Path_5273" data-name="Path 5273" d="M99,100.588a2.6,2.6,0,1,0,2.6-2.6A2.6,2.6,0,0,0,99,100.588Zm2.6,1.929a1.929,1.929,0,0,1-.336-3.828v1.9a.336.336,0,0,0,.336.336h1.9A1.932,1.932,0,0,1,101.6,102.516Zm1.9-2.265h-1.563V98.689A1.933,1.933,0,0,1,103.5,100.251Z" transform="translate(-97.546 -93.591)"/>
        <path id="Path_5274" data-name="Path 5274" d="M103.372,432.35a.336.336,0,0,0-.336.336v1.45a.336.336,0,0,0,.336.336h2.175a.336.336,0,0,0,.336-.336v-1.45a.336.336,0,0,0-.336-.336Zm1.838,1.45h-1.5v-.777h1.5Z" transform="translate(-101.405 -412.96)"/>
        <path id="Path_5275" data-name="Path 5275" d="M184.186,388.159h2.175a.336.336,0,0,0,.336-.336V384.2a.336.336,0,0,0-.336-.336h-2.175a.336.336,0,0,0-.336.336v3.624A.336.336,0,0,0,184.186,388.159Zm.336-3.624h1.5v2.952h-1.5Z" transform="translate(-178.595 -366.646)"/>
        <path id="Path_5276" data-name="Path 5276" d="M265,323.252a.336.336,0,0,0-.336.336v6.343a.336.336,0,0,0,.336.336h2.175a.336.336,0,0,0,.336-.336v-6.343a.336.336,0,0,0-.336-.336Zm1.838,6.343h-1.5v-5.67h1.5Z" transform="translate(-255.783 -308.754)"/>
        <path id="Path_5277" data-name="Path 5277" d="M347.991,284.709a.336.336,0,0,0,.336-.336v-1.186a.336.336,0,0,0-.336-.336h-2.174a.336.336,0,0,0-.336.336v8.154a.336.336,0,0,0,.336.336h2.174a.336.336,0,0,0,.336-.336v-5.4a.336.336,0,1,0-.673,0V291h-1.5v-7.482h1.5v.85A.336.336,0,0,0,347.991,284.709Z" transform="translate(-332.976 -270.164)"/>
        <path id="Path_5278" data-name="Path 5278" d="M175.272,32.325h-7.249a.336.336,0,0,0-.336.336v1.45a.336.336,0,0,0,.336.336h7.249a.336.336,0,0,0,.336-.336v-1.45A.336.336,0,0,0,175.272,32.325Zm-.336,1.45H168.36V33h6.576v.777Z" transform="translate(-163.156 -30.875)"/>
        <path id="Path_5279" data-name="Path 5279" d="M255.542,97.986h-6.705a.336.336,0,1,0,0,.673h6.705a.336.336,0,0,0,0-.673Z" transform="translate(-240.345 -93.591)"/>
        <path id="Path_5280" data-name="Path 5280" d="M255.542,131.658h-6.705a.336.336,0,0,0,0,.673h6.705a.336.336,0,1,0,0-.673Z" transform="translate(-240.345 -125.753)"/>
        <path id="Path_5281" data-name="Path 5281" d="M255.878,165.666a.336.336,0,0,0-.336-.336h-6.705a.336.336,0,0,0,0,.673h6.705A.336.336,0,0,0,255.878,165.666Z" transform="translate(-240.345 -157.915)"/>
        <path id="Path_5282" data-name="Path 5282" d="M253.16,199.338a.336.336,0,0,0-.336-.336h-3.987a.336.336,0,0,0,0,.673h3.987A.336.336,0,0,0,253.16,199.338Z" transform="translate(-240.345 -190.077)"/>
        <path id="Path_5283" data-name="Path 5283" d="M118.581,248.5h-6.116a.336.336,0,1,0,0,.673h6.116a.336.336,0,1,0,0-.673Z" transform="translate(-110.089 -237.355)"/>
        <path id="Path_5284" data-name="Path 5284" d="M118.917,282.508a.336.336,0,0,0-.336-.336h-6.116a.336.336,0,1,0,0,.673h6.116A.336.336,0,0,0,118.917,282.508Z" transform="translate(-110.089 -269.517)"/>
        <path id="Path_5285" data-name="Path 5285" d="M116.2,316.18a.336.336,0,0,0-.336-.336h-3.4a.336.336,0,1,0,0,.673h3.4A.336.336,0,0,0,116.2,316.18Z" transform="translate(-110.089 -301.679)"/>
      </g>
    </g>
  </g>
</svg>
